<mxfile host="Electron" agent="Mozilla/5.0 (Macintosh; Intel Mac OS X 10_15_7) AppleWebKit/537.36 (KHTML, like Gecko) draw.io/25.0.2 Chrome/128.0.6613.186 Electron/32.2.5 Safari/537.36" version="25.0.2">
  <diagram name="第 1 页" id="OwqhxeBwuqwpWSeRy0h9">
    <mxGraphModel dx="1114" dy="778" grid="1" gridSize="10" guides="1" tooltips="1" connect="1" arrows="1" fold="1" page="1" pageScale="1" pageWidth="827" pageHeight="1169" math="0" shadow="0">
      <root>
        <mxCell id="0" />
        <mxCell id="1" parent="0" />
        <mxCell id="j3MBMYwFLt-kKiWLZhZa-3" value="" style="edgeStyle=orthogonalEdgeStyle;rounded=0;orthogonalLoop=1;jettySize=auto;html=1;" edge="1" parent="1" source="j3MBMYwFLt-kKiWLZhZa-1" target="j3MBMYwFLt-kKiWLZhZa-2">
          <mxGeometry relative="1" as="geometry">
            <Array as="points">
              <mxPoint x="240" y="440" />
              <mxPoint x="240" y="340" />
            </Array>
          </mxGeometry>
        </mxCell>
        <mxCell id="j3MBMYwFLt-kKiWLZhZa-6" style="edgeStyle=orthogonalEdgeStyle;rounded=0;orthogonalLoop=1;jettySize=auto;html=1;exitX=1;exitY=0.5;exitDx=0;exitDy=0;entryX=0;entryY=0.5;entryDx=0;entryDy=0;" edge="1" parent="1" source="j3MBMYwFLt-kKiWLZhZa-1" target="j3MBMYwFLt-kKiWLZhZa-4">
          <mxGeometry relative="1" as="geometry" />
        </mxCell>
        <mxCell id="j3MBMYwFLt-kKiWLZhZa-7" style="edgeStyle=orthogonalEdgeStyle;rounded=0;orthogonalLoop=1;jettySize=auto;html=1;exitX=1;exitY=0.5;exitDx=0;exitDy=0;entryX=0;entryY=0.5;entryDx=0;entryDy=0;" edge="1" parent="1" source="j3MBMYwFLt-kKiWLZhZa-1" target="j3MBMYwFLt-kKiWLZhZa-5">
          <mxGeometry relative="1" as="geometry">
            <Array as="points">
              <mxPoint x="240" y="440" />
              <mxPoint x="240" y="530" />
            </Array>
          </mxGeometry>
        </mxCell>
        <mxCell id="j3MBMYwFLt-kKiWLZhZa-1" value="&lt;font style=&quot;font-size: 18px;&quot;&gt;设备(Id)&lt;/font&gt;" style="ellipse;whiteSpace=wrap;html=1;aspect=fixed;" vertex="1" parent="1">
          <mxGeometry x="60" y="400" width="80" height="80" as="geometry" />
        </mxCell>
        <mxCell id="j3MBMYwFLt-kKiWLZhZa-2" value="&lt;span style=&quot;caret-color: rgb(0, 122, 255); color: rgb(51, 51, 51); font-family: &amp;quot;Open Sans&amp;quot;, &amp;quot;Clear Sans&amp;quot;, &amp;quot;Helvetica Neue&amp;quot;, Helvetica, Arial, &amp;quot;Segoe UI Emoji&amp;quot;, sans-serif; font-size: 16px; orphans: 4; text-align: left; white-space-collapse: preserve; background-color: rgb(255, 255, 255);&quot;&gt;设备采购合同文件&lt;/span&gt;" style="whiteSpace=wrap;html=1;" vertex="1" parent="1">
          <mxGeometry x="290" y="310" width="120" height="60" as="geometry" />
        </mxCell>
        <mxCell id="j3MBMYwFLt-kKiWLZhZa-4" value="&lt;span style=&quot;caret-color: rgb(0, 122, 255); color: rgb(51, 51, 51); font-family: &amp;quot;Open Sans&amp;quot;, &amp;quot;Clear Sans&amp;quot;, &amp;quot;Helvetica Neue&amp;quot;, Helvetica, Arial, &amp;quot;Segoe UI Emoji&amp;quot;, sans-serif; font-size: 16px; orphans: 4; text-align: left; white-space-collapse: preserve; background-color: rgb(255, 255, 255);&quot;&gt;设备验收照片&lt;/span&gt;" style="whiteSpace=wrap;html=1;" vertex="1" parent="1">
          <mxGeometry x="290" y="410" width="120" height="60" as="geometry" />
        </mxCell>
        <mxCell id="j3MBMYwFLt-kKiWLZhZa-5" value="&lt;div style=&quot;orphans: 4; text-align: left;&quot;&gt;&lt;font face=&quot;Open Sans, Clear Sans, Helvetica Neue, Helvetica, Arial, Segoe UI Emoji, sans-serif&quot; color=&quot;#333333&quot;&gt;&lt;span style=&quot;font-size: 16px; caret-color: rgb(0, 122, 255); white-space-collapse: preserve; background-color: rgb(255, 255, 255);&quot;&gt;...&lt;/span&gt;&lt;/font&gt;&lt;/div&gt;" style="whiteSpace=wrap;html=1;" vertex="1" parent="1">
          <mxGeometry x="290" y="500" width="120" height="60" as="geometry" />
        </mxCell>
        <mxCell id="j3MBMYwFLt-kKiWLZhZa-8" value="Module" style="text;html=1;align=center;verticalAlign=middle;whiteSpace=wrap;rounded=0;" vertex="1" parent="1">
          <mxGeometry x="320" y="240" width="60" height="30" as="geometry" />
        </mxCell>
        <mxCell id="j3MBMYwFLt-kKiWLZhZa-9" value="Entity" style="text;html=1;align=center;verticalAlign=middle;whiteSpace=wrap;rounded=0;" vertex="1" parent="1">
          <mxGeometry x="70" y="350" width="60" height="30" as="geometry" />
        </mxCell>
        <mxCell id="j3MBMYwFLt-kKiWLZhZa-11" value="File Link" style="text;html=1;align=center;verticalAlign=middle;whiteSpace=wrap;rounded=0;" vertex="1" parent="1">
          <mxGeometry x="845" y="280" width="60" height="30" as="geometry" />
        </mxCell>
        <mxCell id="j3MBMYwFLt-kKiWLZhZa-12" value="Table" style="shape=table;startSize=30;container=1;collapsible=0;childLayout=tableLayout;strokeColor=default;fontSize=16;" vertex="1" parent="1">
          <mxGeometry x="750" y="330" width="250" height="200" as="geometry" />
        </mxCell>
        <mxCell id="j3MBMYwFLt-kKiWLZhZa-13" value="" style="shape=tableRow;horizontal=0;startSize=0;swimlaneHead=0;swimlaneBody=0;strokeColor=inherit;top=0;left=0;bottom=0;right=0;collapsible=0;dropTarget=0;fillColor=none;points=[[0,0.5],[1,0.5]];portConstraint=eastwest;fontSize=16;" vertex="1" parent="j3MBMYwFLt-kKiWLZhZa-12">
          <mxGeometry y="30" width="250" height="57" as="geometry" />
        </mxCell>
        <mxCell id="j3MBMYwFLt-kKiWLZhZa-14" value="LinkId" style="shape=partialRectangle;html=1;whiteSpace=wrap;connectable=0;strokeColor=inherit;overflow=hidden;fillColor=none;top=0;left=0;bottom=0;right=0;pointerEvents=1;fontSize=16;" vertex="1" parent="j3MBMYwFLt-kKiWLZhZa-13">
          <mxGeometry width="84" height="57" as="geometry">
            <mxRectangle width="84" height="57" as="alternateBounds" />
          </mxGeometry>
        </mxCell>
        <mxCell id="j3MBMYwFLt-kKiWLZhZa-15" value="FileId" style="shape=partialRectangle;html=1;whiteSpace=wrap;connectable=0;strokeColor=inherit;overflow=hidden;fillColor=none;top=0;left=0;bottom=0;right=0;pointerEvents=1;fontSize=16;" vertex="1" parent="j3MBMYwFLt-kKiWLZhZa-13">
          <mxGeometry x="84" width="82" height="57" as="geometry">
            <mxRectangle width="82" height="57" as="alternateBounds" />
          </mxGeometry>
        </mxCell>
        <mxCell id="j3MBMYwFLt-kKiWLZhZa-16" value="Module" style="shape=partialRectangle;html=1;whiteSpace=wrap;connectable=0;strokeColor=inherit;overflow=hidden;fillColor=none;top=0;left=0;bottom=0;right=0;pointerEvents=1;fontSize=16;" vertex="1" parent="j3MBMYwFLt-kKiWLZhZa-13">
          <mxGeometry x="166" width="84" height="57" as="geometry">
            <mxRectangle width="84" height="57" as="alternateBounds" />
          </mxGeometry>
        </mxCell>
        <mxCell id="j3MBMYwFLt-kKiWLZhZa-17" value="" style="shape=tableRow;horizontal=0;startSize=0;swimlaneHead=0;swimlaneBody=0;strokeColor=inherit;top=0;left=0;bottom=0;right=0;collapsible=0;dropTarget=0;fillColor=none;points=[[0,0.5],[1,0.5]];portConstraint=eastwest;fontSize=16;" vertex="1" parent="j3MBMYwFLt-kKiWLZhZa-12">
          <mxGeometry y="87" width="250" height="56" as="geometry" />
        </mxCell>
        <mxCell id="j3MBMYwFLt-kKiWLZhZa-18" value="设备Id" style="shape=partialRectangle;html=1;whiteSpace=wrap;connectable=0;strokeColor=inherit;overflow=hidden;fillColor=none;top=0;left=0;bottom=0;right=0;pointerEvents=1;fontSize=16;" vertex="1" parent="j3MBMYwFLt-kKiWLZhZa-17">
          <mxGeometry width="84" height="56" as="geometry">
            <mxRectangle width="84" height="56" as="alternateBounds" />
          </mxGeometry>
        </mxCell>
        <mxCell id="j3MBMYwFLt-kKiWLZhZa-19" value="文件Id" style="shape=partialRectangle;html=1;whiteSpace=wrap;connectable=0;strokeColor=inherit;overflow=hidden;fillColor=none;top=0;left=0;bottom=0;right=0;pointerEvents=1;fontSize=16;" vertex="1" parent="j3MBMYwFLt-kKiWLZhZa-17">
          <mxGeometry x="84" width="82" height="56" as="geometry">
            <mxRectangle width="82" height="56" as="alternateBounds" />
          </mxGeometry>
        </mxCell>
        <mxCell id="j3MBMYwFLt-kKiWLZhZa-20" value="&lt;span style=&quot;color: rgb(51, 51, 51); font-family: &amp;quot;Open Sans&amp;quot;, &amp;quot;Clear Sans&amp;quot;, &amp;quot;Helvetica Neue&amp;quot;, Helvetica, Arial, &amp;quot;Segoe UI Emoji&amp;quot;, sans-serif; orphans: 4; text-align: left; caret-color: rgb(0, 122, 255); white-space-collapse: preserve; background-color: rgb(255, 255, 255);&quot;&gt;设备采购合同文件&lt;/span&gt;" style="shape=partialRectangle;html=1;whiteSpace=wrap;connectable=0;strokeColor=inherit;overflow=hidden;fillColor=none;top=0;left=0;bottom=0;right=0;pointerEvents=1;fontSize=16;" vertex="1" parent="j3MBMYwFLt-kKiWLZhZa-17">
          <mxGeometry x="166" width="84" height="56" as="geometry">
            <mxRectangle width="84" height="56" as="alternateBounds" />
          </mxGeometry>
        </mxCell>
        <mxCell id="j3MBMYwFLt-kKiWLZhZa-21" value="" style="shape=tableRow;horizontal=0;startSize=0;swimlaneHead=0;swimlaneBody=0;strokeColor=inherit;top=0;left=0;bottom=0;right=0;collapsible=0;dropTarget=0;fillColor=none;points=[[0,0.5],[1,0.5]];portConstraint=eastwest;fontSize=16;" vertex="1" parent="j3MBMYwFLt-kKiWLZhZa-12">
          <mxGeometry y="143" width="250" height="57" as="geometry" />
        </mxCell>
        <mxCell id="j3MBMYwFLt-kKiWLZhZa-22" value="" style="shape=partialRectangle;html=1;whiteSpace=wrap;connectable=0;strokeColor=inherit;overflow=hidden;fillColor=none;top=0;left=0;bottom=0;right=0;pointerEvents=1;fontSize=16;" vertex="1" parent="j3MBMYwFLt-kKiWLZhZa-21">
          <mxGeometry width="84" height="57" as="geometry">
            <mxRectangle width="84" height="57" as="alternateBounds" />
          </mxGeometry>
        </mxCell>
        <mxCell id="j3MBMYwFLt-kKiWLZhZa-23" value="" style="shape=partialRectangle;html=1;whiteSpace=wrap;connectable=0;strokeColor=inherit;overflow=hidden;fillColor=none;top=0;left=0;bottom=0;right=0;pointerEvents=1;fontSize=16;" vertex="1" parent="j3MBMYwFLt-kKiWLZhZa-21">
          <mxGeometry x="84" width="82" height="57" as="geometry">
            <mxRectangle width="82" height="57" as="alternateBounds" />
          </mxGeometry>
        </mxCell>
        <mxCell id="j3MBMYwFLt-kKiWLZhZa-24" value="" style="shape=partialRectangle;html=1;whiteSpace=wrap;connectable=0;strokeColor=inherit;overflow=hidden;fillColor=none;top=0;left=0;bottom=0;right=0;pointerEvents=1;fontSize=16;" vertex="1" parent="j3MBMYwFLt-kKiWLZhZa-21">
          <mxGeometry x="166" width="84" height="57" as="geometry">
            <mxRectangle width="84" height="57" as="alternateBounds" />
          </mxGeometry>
        </mxCell>
        <mxCell id="j3MBMYwFLt-kKiWLZhZa-30" style="edgeStyle=orthogonalEdgeStyle;rounded=0;orthogonalLoop=1;jettySize=auto;html=1;exitX=1;exitY=0.5;exitDx=0;exitDy=0;entryX=0;entryY=0.5;entryDx=0;entryDy=0;" edge="1" parent="1" source="j3MBMYwFLt-kKiWLZhZa-25" target="j3MBMYwFLt-kKiWLZhZa-17">
          <mxGeometry relative="1" as="geometry" />
        </mxCell>
        <mxCell id="j3MBMYwFLt-kKiWLZhZa-25" value="文件基本信息&lt;div&gt;设备照片.png&lt;/div&gt;&lt;div&gt;....&lt;/div&gt;" style="rounded=0;whiteSpace=wrap;html=1;" vertex="1" parent="1">
          <mxGeometry x="510" y="290" width="130" height="560" as="geometry" />
        </mxCell>
        <mxCell id="j3MBMYwFLt-kKiWLZhZa-26" value="File Pool" style="text;html=1;align=center;verticalAlign=middle;whiteSpace=wrap;rounded=0;" vertex="1" parent="1">
          <mxGeometry x="540" y="240" width="60" height="30" as="geometry" />
        </mxCell>
        <mxCell id="j3MBMYwFLt-kKiWLZhZa-27" style="edgeStyle=orthogonalEdgeStyle;rounded=0;orthogonalLoop=1;jettySize=auto;html=1;exitX=1;exitY=0.5;exitDx=0;exitDy=0;" edge="1" parent="1" source="j3MBMYwFLt-kKiWLZhZa-2">
          <mxGeometry relative="1" as="geometry">
            <mxPoint x="510" y="340" as="targetPoint" />
          </mxGeometry>
        </mxCell>
        <mxCell id="j3MBMYwFLt-kKiWLZhZa-28" style="edgeStyle=orthogonalEdgeStyle;rounded=0;orthogonalLoop=1;jettySize=auto;html=1;exitX=1;exitY=0.5;exitDx=0;exitDy=0;" edge="1" parent="1" source="j3MBMYwFLt-kKiWLZhZa-4">
          <mxGeometry relative="1" as="geometry">
            <mxPoint x="508" y="440" as="targetPoint" />
            <Array as="points">
              <mxPoint x="508" y="440" />
            </Array>
          </mxGeometry>
        </mxCell>
        <mxCell id="j3MBMYwFLt-kKiWLZhZa-29" style="edgeStyle=orthogonalEdgeStyle;rounded=0;orthogonalLoop=1;jettySize=auto;html=1;exitX=1;exitY=0.5;exitDx=0;exitDy=0;entryX=0;entryY=0.429;entryDx=0;entryDy=0;entryPerimeter=0;" edge="1" parent="1" source="j3MBMYwFLt-kKiWLZhZa-5" target="j3MBMYwFLt-kKiWLZhZa-25">
          <mxGeometry relative="1" as="geometry" />
        </mxCell>
        <mxCell id="j3MBMYwFLt-kKiWLZhZa-33" style="edgeStyle=orthogonalEdgeStyle;rounded=0;orthogonalLoop=1;jettySize=auto;html=1;exitX=1;exitY=0.5;exitDx=0;exitDy=0;entryX=0;entryY=0.5;entryDx=0;entryDy=0;" edge="1" parent="1" source="j3MBMYwFLt-kKiWLZhZa-31" target="j3MBMYwFLt-kKiWLZhZa-32">
          <mxGeometry relative="1" as="geometry" />
        </mxCell>
        <mxCell id="j3MBMYwFLt-kKiWLZhZa-35" style="edgeStyle=orthogonalEdgeStyle;rounded=0;orthogonalLoop=1;jettySize=auto;html=1;exitX=1;exitY=0.5;exitDx=0;exitDy=0;entryX=0;entryY=0.5;entryDx=0;entryDy=0;" edge="1" parent="1" source="j3MBMYwFLt-kKiWLZhZa-31" target="j3MBMYwFLt-kKiWLZhZa-34">
          <mxGeometry relative="1" as="geometry" />
        </mxCell>
        <mxCell id="j3MBMYwFLt-kKiWLZhZa-31" value="&lt;font style=&quot;font-size: 18px;&quot;&gt;流水线(Id)&lt;/font&gt;" style="ellipse;whiteSpace=wrap;html=1;aspect=fixed;" vertex="1" parent="1">
          <mxGeometry x="60" y="690" width="80" height="80" as="geometry" />
        </mxCell>
        <mxCell id="j3MBMYwFLt-kKiWLZhZa-36" value="" style="edgeStyle=orthogonalEdgeStyle;rounded=0;orthogonalLoop=1;jettySize=auto;html=1;entryX=-0.015;entryY=0.713;entryDx=0;entryDy=0;entryPerimeter=0;" edge="1" parent="1" source="j3MBMYwFLt-kKiWLZhZa-32" target="j3MBMYwFLt-kKiWLZhZa-25">
          <mxGeometry relative="1" as="geometry" />
        </mxCell>
        <mxCell id="j3MBMYwFLt-kKiWLZhZa-32" value="&lt;div style=&quot;orphans: 4; text-align: left;&quot;&gt;&lt;font face=&quot;Open Sans, Clear Sans, Helvetica Neue, Helvetica, Arial, Segoe UI Emoji, sans-serif&quot; color=&quot;#333333&quot;&gt;&lt;span style=&quot;font-size: 16px; caret-color: rgb(0, 122, 255); white-space-collapse: preserve; background-color: rgb(255, 255, 255);&quot;&gt;负载照片&lt;/span&gt;&lt;/font&gt;&lt;/div&gt;" style="whiteSpace=wrap;html=1;" vertex="1" parent="1">
          <mxGeometry x="290" y="660" width="120" height="60" as="geometry" />
        </mxCell>
        <mxCell id="j3MBMYwFLt-kKiWLZhZa-34" value="&lt;div style=&quot;orphans: 4; text-align: left;&quot;&gt;&lt;font face=&quot;Open Sans, Clear Sans, Helvetica Neue, Helvetica, Arial, Segoe UI Emoji, sans-serif&quot; color=&quot;#333333&quot;&gt;&lt;span style=&quot;font-size: 16px; caret-color: rgb(0, 122, 255); white-space-collapse: preserve; background-color: rgb(255, 255, 255);&quot;&gt;...&lt;/span&gt;&lt;/font&gt;&lt;/div&gt;" style="whiteSpace=wrap;html=1;" vertex="1" parent="1">
          <mxGeometry x="290" y="770" width="120" height="60" as="geometry" />
        </mxCell>
        <mxCell id="j3MBMYwFLt-kKiWLZhZa-38" style="edgeStyle=orthogonalEdgeStyle;rounded=0;orthogonalLoop=1;jettySize=auto;html=1;exitX=1;exitY=0.5;exitDx=0;exitDy=0;entryX=-0.008;entryY=0.909;entryDx=0;entryDy=0;entryPerimeter=0;" edge="1" parent="1" source="j3MBMYwFLt-kKiWLZhZa-34" target="j3MBMYwFLt-kKiWLZhZa-25">
          <mxGeometry relative="1" as="geometry" />
        </mxCell>
      </root>
    </mxGraphModel>
  </diagram>
</mxfile>
